<svg width="70" height="70" viewBox="0 0 70 70" fill="none" xmlns="http://www.w3.org/2000/svg">
<rect width="70" height="70" rx="20" fill="#8676FF"/>
<path d="M25.8747 39.364L30.4107 34.828L34.1814 38.6L38.3907 34.3907L36 32H42.6667V38.6667L40.276 36.276L34.1814 42.3707L30.4107 38.6L27.1107 41.8987C28.6086 44.1531 30.9075 45.7539 33.5417 46.3764C36.1758 46.999 38.9481 46.5969 41.2969 45.2516C43.6456 43.9063 45.395 41.7183 46.1906 39.1312C46.9862 36.5441 46.7686 33.7512 45.5817 31.3186C44.3948 28.8859 42.3275 26.9955 39.7988 26.0303C37.27 25.0651 34.4688 25.0974 31.9629 26.1206C29.4571 27.1438 27.4339 29.0814 26.3034 31.5407C25.1729 34.0001 25.0197 36.7972 25.8747 39.3653V39.364ZM23.824 41.4413L23.8107 41.428L23.816 41.4227C23.0559 39.716 22.6643 37.8682 22.6667 36C22.6667 28.636 28.636 22.6667 36 22.6667C43.364 22.6667 49.3334 28.636 49.3334 36C49.3334 43.364 43.364 49.3333 36 49.3333C30.5734 49.3333 25.9067 46.0933 23.824 41.4413Z" fill="white"/>
</svg>
