<svg width="70" height="71" viewBox="0 0 70 71" fill="none" xmlns="http://www.w3.org/2000/svg">
<rect y="0.948486" width="70" height="70" rx="20" fill="#8676FF"/>
<path d="M25.8747 40.3125L30.4107 35.7765L34.1813 39.5485L38.3907 35.3392L36 32.9485H42.6667V39.6152L40.276 37.2245L34.1813 43.3192L30.4107 39.5485L27.1107 42.8472C28.6086 45.1016 30.9075 46.7024 33.5417 47.3249C36.1758 47.9475 38.9481 47.5454 41.2968 46.2001C43.6455 44.8548 45.395 42.6668 46.1906 40.0797C46.9862 37.4926 46.7685 34.6997 45.5817 32.2671C44.3948 29.8344 42.3275 27.944 39.7987 26.9788C37.2699 26.0136 34.4688 26.0459 31.9629 27.0691C29.4571 28.0923 27.4339 30.0299 26.3034 32.4892C25.1729 34.9486 25.0196 37.7457 25.8747 40.3138V40.3125ZM23.824 42.3898L23.8107 42.3765L23.816 42.3712C23.0559 40.6645 22.6643 38.8167 22.6667 36.9485C22.6667 29.5845 28.636 23.6152 36 23.6152C43.364 23.6152 49.3333 29.5845 49.3333 36.9485C49.3333 44.3125 43.364 50.2818 36 50.2818C30.5733 50.2818 25.9067 47.0418 23.824 42.3898Z" fill="white"/>
</svg>
