<svg width="40" height="40" viewBox="0 0 40 40" fill="none" xmlns="http://www.w3.org/2000/svg">
<rect width="40" height="40" rx="12" fill="#F8A243"/>
<g clip-path="url(#clip0_3_6820)">
<path d="M11 27V13.7C10.9999 13.4947 11.0631 13.2944 11.1808 13.1262C11.2985 12.9581 11.4651 12.8302 11.658 12.76L21.329 9.24399C21.4045 9.21649 21.4856 9.20762 21.5653 9.21812C21.645 9.22862 21.721 9.25819 21.7869 9.30431C21.8527 9.35043 21.9065 9.41175 21.9436 9.48306C21.9807 9.55438 22 9.63359 22 9.71399V14.667L28.316 16.772C28.5152 16.8383 28.6885 16.9657 28.8112 17.136C28.934 17.3064 29.0001 17.511 29 17.721V27H31V29H9V27H11ZM13 27H20V11.855L13 14.401V27ZM27 27V18.442L22 16.775V27H27Z" fill="white"/>
</g>
<defs>
<clipPath id="clip0_3_6820">
<rect width="24" height="24" fill="white" transform="translate(8 8)"/>
</clipPath>
</defs>
</svg>
