<svg width="40" height="41" viewBox="0 0 40 41" fill="none" xmlns="http://www.w3.org/2000/svg">
<rect y="0.948486" width="40" height="40" rx="12" fill="#669AFF"/>
<g clip-path="url(#clip0_3_6624)">
<path d="M29 28.9485H31V30.9485H9V28.9485H11V11.9485C11 11.6833 11.1054 11.4289 11.2929 11.2414C11.4804 11.0538 11.7348 10.9485 12 10.9485H28C28.2652 10.9485 28.5196 11.0538 28.7071 11.2414C28.8946 11.4289 29 11.6833 29 11.9485V28.9485ZM27 28.9485V12.9485H13V28.9485H27ZM16 19.9485H19V21.9485H16V19.9485ZM16 15.9485H19V17.9485H16V15.9485ZM16 23.9485H19V25.9485H16V23.9485ZM21 23.9485H24V25.9485H21V23.9485ZM21 19.9485H24V21.9485H21V19.9485ZM21 15.9485H24V17.9485H21V15.9485Z" fill="white"/>
</g>
<defs>
<clipPath id="clip0_3_6624">
<rect width="24" height="24" fill="white" transform="translate(8 8.94849)"/>
</clipPath>
</defs>
</svg>
