<svg width="40" height="40" viewBox="0 0 40 40" fill="none" xmlns="http://www.w3.org/2000/svg">
<rect width="40" height="40" rx="12" fill="#E8A5FF"/>
<g clip-path="url(#clip0_3_6593)">
<path d="M26.901 18C27.296 18.6856 27.946 19.1872 28.7093 19.3957C29.4726 19.6042 30.2873 19.5026 30.976 19.113C31.057 19.8366 30.9103 20.5675 30.5562 21.2039C30.2022 21.8402 29.6586 22.3502 29.001 22.663L29 29H22V27C22.0002 26.4954 21.8096 26.0094 21.4665 25.6395C21.1234 25.2695 20.6532 25.0428 20.15 25.005L20 25C19.4954 24.9998 19.0094 25.1904 18.6394 25.5335C18.2695 25.8766 18.0428 26.3468 18.005 26.85L18 27V29H11V22.664C10.3411 22.3517 9.79628 21.8414 9.44148 21.2044C9.08669 20.5675 8.93968 19.8356 9.021 19.111C9.70963 19.5014 10.5247 19.6036 11.2884 19.3955C12.0521 19.1874 12.7026 18.6858 13.098 18H26.901ZM25.93 20H14.069L13.993 20.079C13.562 20.499 13.058 20.839 12.507 21.081L12.411 21.12L13 21.4L12.999 27L16.001 26.999V26.927L16.011 26.704C16.16 24.688 17.791 23.105 19.865 23.006L20.073 23.001L20.296 23.011C21.2681 23.0831 22.1804 23.5077 22.8616 24.2051C23.5427 24.9024 23.9458 25.8245 23.995 26.798L23.999 26.999L27 27L27.001 21.4L27.588 21.12L27.493 21.08C26.9415 20.8385 26.438 20.4994 26.007 20.079L25.93 20ZM25.036 11C25.1075 11.4961 25.2848 11.971 25.5558 12.3927C25.8267 12.8144 26.1851 13.1729 26.6067 13.4441C27.0282 13.7153 27.5031 13.8927 27.9991 13.9645C28.4952 14.0362 29.0009 14.0006 29.482 13.86C29.3964 14.6886 29.018 15.4594 28.415 16.0341C27.812 16.6087 27.0237 16.9494 26.192 16.995L26 17H14C13.134 17.0001 12.2986 16.6792 11.6555 16.0992C11.0124 15.5193 10.6071 14.7214 10.518 13.86C10.9991 14.0006 11.5048 14.0362 12.0009 13.9645C12.4969 13.8927 12.9718 13.7153 13.3933 13.4441C13.8149 13.1729 14.1733 12.8144 14.4442 12.3927C14.7152 11.971 14.8925 11.4961 14.964 11H25.036ZM23.6 13H16.399C16.0387 13.7054 15.5305 14.3249 14.909 14.816L14.661 15H25.338L25.326 14.992C24.6828 14.5373 24.1444 13.9501 23.747 13.27L23.6 13Z" fill="white"/>
</g>
<defs>
<clipPath id="clip0_3_6593">
<rect width="24" height="24" fill="white" transform="translate(8 8)"/>
</clipPath>
</defs>
</svg>
