<svg width="40" height="41" viewBox="0 0 40 41" fill="none" xmlns="http://www.w3.org/2000/svg">
<rect y="0.948486" width="40" height="40" rx="12" fill="#F8A243"/>
<g clip-path="url(#clip0_3_6500)">
<path d="M11 27.9485V14.6485C10.9999 14.4432 11.0631 14.2429 11.1808 14.0747C11.2985 13.9065 11.4651 13.7787 11.658 13.7085L21.329 10.1925C21.4045 10.165 21.4856 10.1561 21.5653 10.1666C21.645 10.1771 21.721 10.2067 21.7869 10.2528C21.8527 10.2989 21.9065 10.3602 21.9436 10.4316C21.9807 10.5029 22 10.5821 22 10.6625V15.6155L28.316 17.7205C28.5152 17.7868 28.6885 17.9142 28.8112 18.0845C28.934 18.2549 29.0001 18.4595 29 18.6695V27.9485H31V29.9485H9V27.9485H11ZM13 27.9485H20V12.8035L13 15.3495V27.9485ZM27 27.9485V19.3905L22 17.7235V27.9485H27Z" fill="white"/>
</g>
<defs>
<clipPath id="clip0_3_6500">
<rect width="24" height="24" fill="white" transform="translate(8 8.94849)"/>
</clipPath>
</defs>
</svg>
